<?xml version="1.0" encoding="UTF-8"?>
<svg id="Layer_2" data-name="Layer 2" xmlns="http://www.w3.org/2000/svg" viewBox="0 0 474.37 119.5">
  <defs>
    <style>
      .cls-1 {
        stroke: #53b27e;
      }

      .cls-1, .cls-2, .cls-3, .cls-4 {
        fill: none;
        stroke-linecap: round;
        stroke-miterlimit: 10;
        stroke-width: 4.75px;
      }

      .cls-5 {
        fill: #2a2d38;
      }

      .cls-5, .cls-6 {
        stroke-width: 0px;
      }

      .cls-2 {
        stroke: #cd2e70;
      }

      .cls-3 {
        stroke: #e8af3d;
      }

      .cls-7 {
        isolation: isolate;
      }

      .cls-4 {
        stroke: #3b86b4;
      }

      .cls-6 {
        fill: #e50570;
      }
    </style>
  </defs>
  <g id="Layer_5" data-name="Layer 5">
    <g id="Layer_1-2" data-name="Layer 1-2">
      <g>
        <g class="cls-7">
          <path class="cls-5" d="M50.22,65.6h-10.39c-.32-1.73-.87-3.25-1.62-4.55s-1.84-2.49-3.03-3.36c-1.19-.97-2.49-1.62-4-2.06-1.52-.43-3.14-.76-4.87-.76-3.14,0-5.84.76-8.23,2.27-2.38,1.52-4.22,3.79-5.63,6.82-1.41,3.03-2.06,6.6-2.06,10.93s.65,8.01,2.06,11.04c1.41,3.03,3.25,5.2,5.63,6.71,2.38,1.52,5.09,2.27,8.23,2.27,1.73,0,3.36-.22,4.76-.65,1.41-.43,2.81-1.08,4-2.06s2.16-1.95,3.03-3.25c.87-1.3,1.41-2.81,1.73-4.44l10.39.11c-.32,2.6-1.19,5.2-2.49,7.58s-3.03,4.44-5.09,6.28c-2.06,1.84-4.55,3.25-7.25,4.22-2.81.97-5.84,1.52-9.31,1.52-4.98,0-9.52-1.19-13.42-3.46-3.9-2.38-7.04-5.74-9.31-10.07-2.27-4.44-3.36-9.63-3.36-15.8s1.19-11.37,3.46-15.8c2.27-4.33,5.41-7.68,9.31-10.07,3.9-2.27,8.44-3.46,13.42-3.46,3.14,0,6.17.43,8.88,1.3,2.71.87,5.2,2.16,7.25,3.9,2.16,1.73,3.9,3.79,5.3,6.28,1.3,2.6,2.16,5.41,2.6,8.55Z"/>
          <path class="cls-5" d="M65.59,119.5c-1.41,0-2.6-.11-3.79-.32-1.19-.22-2.06-.43-2.81-.76l2.38-7.9c1.52.43,2.81.65,3.9.65,1.19,0,2.16-.32,3.03-1.08.87-.65,1.62-1.84,2.27-3.46l.87-2.27-15.48-43.73h10.72l9.85,32.36h.43l9.85-32.36h10.72l-17.1,47.95c-.76,2.27-1.84,4.22-3.14,5.84-1.3,1.62-2.92,2.92-4.87,3.79-1.95.87-4.22,1.3-6.82,1.3Z"/>
        </g>
        <g class="cls-7">
          <path class="cls-6" d="M104.56,103.48v-42.86h9.63v7.25h.54c.87-2.49,2.38-4.33,4.44-5.74s4.55-2.06,7.36-2.06,5.3.65,7.36,2.06c1.95,1.41,3.36,3.36,4.22,5.74h.43c.97-2.38,2.6-4.33,4.76-5.74s4.98-2.16,8.01-2.16c3.9,0,7.14,1.3,9.63,3.79,2.49,2.49,3.68,6.17,3.68,10.93v28.68h-10.07v-27.06c0-2.71-.76-4.65-2.16-5.84s-3.14-1.84-5.2-1.84c-2.38,0-4.33.76-5.74,2.27s-2.06,3.46-2.06,5.84v26.73h-9.85v-27.6c0-2.16-.65-4-1.95-5.3s-3.03-1.95-5.2-1.95c-1.41,0-2.81.32-4,1.08s-2.16,1.73-2.81,3.14-1.08,2.92-1.08,4.65v25.98h-9.96Z"/>
          <path class="cls-6" d="M193.64,104.24c-4.22,0-7.79-.87-10.82-2.71s-5.41-4.44-7.14-7.68c-1.73-3.36-2.49-7.14-2.49-11.58s.87-8.33,2.49-11.58c1.73-3.36,4-5.95,7.14-7.79,3.14-1.84,6.71-2.71,10.82-2.71s7.79.87,10.82,2.71c3.03,1.84,5.41,4.44,7.14,7.79,1.73,3.36,2.49,7.25,2.49,11.58s-.87,8.33-2.49,11.58c-1.73,3.36-4,5.84-7.14,7.68s-6.6,2.71-10.82,2.71ZM193.64,96.23c2.27,0,4.11-.65,5.74-1.84s2.71-2.92,3.46-5.09,1.08-4.44,1.08-7.04-.32-4.98-1.08-7.14-1.84-3.79-3.46-5.09c-1.52-1.3-3.46-1.95-5.74-1.95s-4.22.65-5.74,1.95c-1.52,1.3-2.71,2.92-3.46,5.09s-1.08,4.55-1.08,7.14.32,4.98,1.08,7.04c.76,2.16,1.95,3.79,3.46,5.09,1.52,1.3,3.46,1.84,5.74,1.84Z"/>
          <path class="cls-6" d="M232.71,78.37v25.11h-10.07v-42.86h9.63v7.25h.54c.97-2.38,2.6-4.33,4.76-5.74s4.87-2.16,8.01-2.16c2.92,0,5.52.65,7.68,1.95s3.9,3.14,5.09,5.52c1.19,2.38,1.84,5.3,1.84,8.77v27.28h-10.07v-25.76c0-2.81-.76-5.09-2.16-6.71-1.52-1.62-3.46-2.38-6.17-2.38-1.73,0-3.36.43-4.65,1.19-1.41.76-2.38,1.84-3.25,3.36-.76,1.41-1.19,3.14-1.19,5.2Z"/>
          <path class="cls-6" d="M275.58,54.56c-1.62,0-2.92-.54-4.11-1.62-1.19-1.08-1.73-2.38-1.73-3.9s.54-2.81,1.73-3.9c1.19-1.08,2.49-1.62,4.11-1.62s3.03.54,4.11,1.62c1.19,1.08,1.73,2.38,1.73,3.9s-.54,2.81-1.73,3.9c-1.08,1.08-2.49,1.62-4.11,1.62ZM270.49,103.48v-42.86h10.07v42.75h-10.07v.11Z"/>
          <path class="cls-6" d="M299.17,60.62l8.66,15.8,8.77-15.8h10.72l-12.88,21.43,13.1,21.43h-10.61l-9.09-15.37-8.98,15.37h-10.72l12.99-21.43-12.56-21.43h10.61Z"/>
          <path class="cls-5" d="M345.93,46.33v57.04h-10.39v-57.04h10.39Z"/>
          <path class="cls-5" d="M408.17,74.91c0,6.17-1.19,11.37-3.46,15.8-2.27,4.33-5.41,7.68-9.42,10.07-3.9,2.27-8.44,3.46-13.42,3.46s-9.52-1.19-13.42-3.46c-3.9-2.38-7.04-5.74-9.42-10.07-2.27-4.33-3.46-9.63-3.46-15.8s1.19-11.37,3.46-15.8c2.27-4.33,5.41-7.68,9.42-10.07,3.9-2.27,8.44-3.46,13.42-3.46s9.42,1.19,13.42,3.46c3.9,2.27,7.04,5.63,9.42,10.07,2.27,4.44,3.46,9.63,3.46,15.8ZM397.78,74.91c0-4.33-.65-8.01-2.06-10.93-1.3-3.03-3.25-5.2-5.63-6.82-2.38-1.62-5.09-2.27-8.23-2.27s-5.84.76-8.23,2.27-4.22,3.79-5.63,6.82c-1.3,3.03-2.06,6.6-2.06,10.93s.65,8.01,2.06,10.93c1.3,3.03,3.25,5.2,5.63,6.82,2.38,1.62,5.09,2.27,8.23,2.27s5.84-.76,8.23-2.27,4.22-3.79,5.63-6.82c1.3-2.92,2.06-6.6,2.06-10.93ZM378.4,84.32h9.42l5.52,7.14,4,4.65,9.52,12.23h-10.07l-6.49-8.23-2.71-3.9-9.2-11.91Z"/>
        </g>
        <g>
          <path class="cls-2" d="M434.86,28.47V10.18c.43-4.55,4.44-8.01,8.88-7.79,4.65.11,8.44,4.11,8.33,8.88"/>
          <path class="cls-4" d="M441.68,39.84h-18.29c-4.55-.43-8.01-4.44-7.79-8.88.11-4.65,4.11-8.44,8.88-8.33"/>
          <path class="cls-3" d="M445.9,22.19h18.29c4.55.43,8.01,4.44,7.79,8.88-.11,4.65-4.11,8.44-8.88,8.33"/>
          <path class="cls-1" d="M452.29,32.58v18.29c-.43,4.55-4.44,8.01-8.88,7.79-4.65-.11-8.44-4.11-8.33-8.88"/>
        </g>
      </g>
    </g>
  </g>
</svg>